<svg xmlns="http://www.w3.org/2000/svg" viewBox="0 0 64 64" role="img" aria-label="Dimore Spettrali">
  <rect width="64" height="64" rx="14" fill="#12001d"/>
  <path fill="#d8b4fe" d="M9 52h46v-6h-4V26L32 12 13 26v20H9v6Z"/>
  <path fill="#2f004f" d="M18 46V29l14-10 14 10v17H18Z"/>
  <path fill="#f6efff" d="M25 35h6v11h-6V35Zm10 0h8v7h-8v-7Zm-13-7h7v6h-7v-6Zm13 0h7v6h-7v-6Z"/>
  <path fill="#9100f2" d="M17 24h7v-8h6v4l2-2 15 11v17h4V27L32 13 13 27v19h4V24Z"/>
  <path fill="#f6efff" d="M47 14c2 0 4 2 4 4s-2 4-4 4c1-1 2-2 2-4s-1-3-2-4Z"/>
</svg>
